<svg xmlns="http://www.w3.org/2000/svg" width="420" height="860" viewBox="0 0 420 860" role="img" aria-labelledby="title desc">
  <title id="title">Option C Task-First Strip</title>
  <desc id="desc">Mobile calendar mockup with a task-priority strip above the month grid.</desc>
  <rect width="420" height="860" rx="36" fill="#efe4e6"/>
  <rect x="24" y="20" width="372" height="820" rx="34" fill="#0f172a"/>
  <rect x="40" y="36" width="340" height="788" rx="28" fill="#fff8fa"/>
  <text x="64" y="84" fill="#0f172a" font-family="Georgia, serif" font-size="18" font-weight="700">Option C / Task-First Strip</text>
  <rect x="56" y="108" width="308" height="112" rx="24" fill="#fff1f2" stroke="#fecdd3"/>
  <text x="76" y="142" fill="#9f1239" font-family="Arial, sans-serif" font-size="17" font-weight="700">Today / urgent strip</text>
  <rect x="76" y="158" width="120" height="40" rx="16" fill="#ffffff"/>
  <text x="92" y="183" fill="#111827" font-family="Arial, sans-serif" font-size="12" font-weight="700">3 due today</text>
  <rect x="206" y="158" width="120" height="40" rx="16" fill="#ffffff"/>
  <text x="224" y="183" fill="#111827" font-family="Arial, sans-serif" font-size="12" font-weight="700">2 overdue</text>
  <rect x="56" y="244" width="308" height="316" rx="24" fill="#ffffff" stroke="#d6d3d1"/>
  <g fill="#64748b" font-family="Arial, sans-serif" font-size="11" font-weight="700">
    <text x="74" y="274">SUN</text><text x="117" y="274">MON</text><text x="160" y="274">TUE</text><text x="202" y="274">WED</text><text x="246" y="274">THU</text><text x="288" y="274">FRI</text><text x="332" y="274">SAT</text>
  </g>
  <g>
    <rect x="66" y="288" width="38" height="44" rx="14" fill="#f8fafc"/><rect x="108" y="288" width="38" height="44" rx="14" fill="#f8fafc"/><rect x="150" y="288" width="38" height="44" rx="14" fill="#f8fafc"/><rect x="192" y="288" width="38" height="44" rx="14" fill="#f8fafc"/><rect x="234" y="288" width="38" height="44" rx="14" fill="#f8fafc"/><rect x="276" y="288" width="38" height="44" rx="14" fill="#f8fafc"/><rect x="318" y="288" width="38" height="44" rx="14" fill="#f8fafc"/>
    <rect x="66" y="336" width="38" height="44" rx="14" fill="#f8fafc"/><rect x="108" y="336" width="38" height="44" rx="14" fill="#f8fafc"/><rect x="150" y="336" width="38" height="44" rx="14" fill="#f8fafc"/><rect x="192" y="336" width="38" height="44" rx="14" fill="#f8fafc"/><rect x="234" y="336" width="38" height="44" rx="14" fill="#f8fafc"/><rect x="276" y="336" width="38" height="44" rx="14" fill="#f8fafc"/><rect x="318" y="336" width="38" height="44" rx="14" fill="#f8fafc"/>
    <rect x="66" y="384" width="38" height="44" rx="14" fill="#f8fafc"/><rect x="108" y="384" width="38" height="44" rx="14" fill="#f8fafc"/><rect x="150" y="384" width="38" height="44" rx="14" fill="#f8fafc"/><rect x="192" y="384" width="38" height="44" rx="14" fill="#fee2e2" stroke="#ef4444"/><rect x="234" y="384" width="38" height="44" rx="14" fill="#f8fafc"/><rect x="276" y="384" width="38" height="44" rx="14" fill="#f8fafc"/><rect x="318" y="384" width="38" height="44" rx="14" fill="#f8fafc"/>
    <rect x="66" y="432" width="38" height="44" rx="14" fill="#f8fafc"/><rect x="108" y="432" width="38" height="44" rx="14" fill="#f8fafc"/><rect x="150" y="432" width="38" height="44" rx="14" fill="#f8fafc"/><rect x="192" y="432" width="38" height="44" rx="14" fill="#f8fafc"/><rect x="234" y="432" width="38" height="44" rx="14" fill="#f8fafc"/><rect x="276" y="432" width="38" height="44" rx="14" fill="#f8fafc"/><rect x="318" y="432" width="38" height="44" rx="14" fill="#f8fafc"/>
    <rect x="66" y="480" width="38" height="44" rx="14" fill="#f8fafc"/><rect x="108" y="480" width="38" height="44" rx="14" fill="#f8fafc"/><rect x="150" y="480" width="38" height="44" rx="14" fill="#f8fafc"/><rect x="192" y="480" width="38" height="44" rx="14" fill="#f8fafc"/><rect x="234" y="480" width="38" height="44" rx="14" fill="#f8fafc"/><rect x="276" y="480" width="38" height="44" rx="14" fill="#f8fafc"/><rect x="318" y="480" width="38" height="44" rx="14" fill="#f8fafc"/>
  </g>
  <circle cx="211" cy="401" r="11" fill="#e11d48"/>
  <text x="206" y="405" fill="#ffffff" font-family="Arial, sans-serif" font-size="11" font-weight="700">10</text>
  <rect x="219" y="413" width="10" height="10" rx="5" fill="#e5e7eb"/>
  <rect x="56" y="588" width="308" height="152" rx="28" fill="#ffffff" stroke="#fecdd3"/>
  <text x="76" y="626" fill="#0f172a" font-family="Arial, sans-serif" font-size="18" font-weight="700">Action-heavy</text>
  <text x="76" y="650" fill="#475569" font-family="Arial, sans-serif" font-size="13">Strong for urgent work, but visually busy.</text>
  <text x="76" y="670" fill="#475569" font-family="Arial, sans-serif" font-size="13">Less suitable as the default teacher calendar.</text>
</svg>
