<svg xmlns="http://www.w3.org/2000/svg" width="420" height="860" viewBox="0 0 420 860" role="img" aria-labelledby="title desc">
  <title id="title">Option B Selected-Day Agenda</title>
  <desc id="desc">Mobile calendar mockup with a clean month grid and a selected-day agenda card below it.</desc>
  <rect width="420" height="860" rx="36" fill="#e6efe6"/>
  <rect x="24" y="20" width="372" height="820" rx="34" fill="#0f172a"/>
  <rect x="40" y="36" width="340" height="788" rx="28" fill="#f8faf8"/>
  <text x="64" y="84" fill="#0f172a" font-family="Georgia, serif" font-size="18" font-weight="700">Option B / Selected-Day Agenda</text>
  <rect x="56" y="106" width="308" height="54" rx="20" fill="#ecfccb"/>
  <text x="78" y="140" fill="#3f6212" font-family="Arial, sans-serif" font-size="18" font-weight="700">March 2026</text>
  <rect x="56" y="180" width="308" height="318" rx="24" fill="#ffffff" stroke="#d6d3d1"/>
  <g fill="#64748b" font-family="Arial, sans-serif" font-size="11" font-weight="700">
    <text x="74" y="210">SUN</text><text x="117" y="210">MON</text><text x="160" y="210">TUE</text><text x="202" y="210">WED</text><text x="246" y="210">THU</text><text x="288" y="210">FRI</text><text x="332" y="210">SAT</text>
  </g>
  <g>
    <rect x="66" y="224" width="38" height="42" rx="14" fill="#f8fafc"/><rect x="108" y="224" width="38" height="42" rx="14" fill="#f8fafc"/><rect x="150" y="224" width="38" height="42" rx="14" fill="#f8fafc"/><rect x="192" y="224" width="38" height="42" rx="14" fill="#f8fafc"/><rect x="234" y="224" width="38" height="42" rx="14" fill="#f8fafc"/><rect x="276" y="224" width="38" height="42" rx="14" fill="#f8fafc"/><rect x="318" y="224" width="38" height="42" rx="14" fill="#f8fafc"/>
    <rect x="66" y="272" width="38" height="42" rx="14" fill="#f8fafc"/><rect x="108" y="272" width="38" height="42" rx="14" fill="#f8fafc"/><rect x="150" y="272" width="38" height="42" rx="14" fill="#f8fafc"/><rect x="192" y="272" width="38" height="42" rx="14" fill="#f8fafc"/><rect x="234" y="272" width="38" height="42" rx="14" fill="#f8fafc"/><rect x="276" y="272" width="38" height="42" rx="14" fill="#f8fafc"/><rect x="318" y="272" width="38" height="42" rx="14" fill="#f8fafc"/>
    <rect x="66" y="320" width="38" height="42" rx="14" fill="#f8fafc"/><rect x="108" y="320" width="38" height="42" rx="14" fill="#f8fafc"/><rect x="150" y="320" width="38" height="42" rx="14" fill="#f8fafc"/><rect x="192" y="320" width="38" height="42" rx="14" fill="#f8fafc"/><rect x="234" y="320" width="38" height="42" rx="14" fill="#f8fafc"/><rect x="276" y="320" width="38" height="42" rx="14" fill="#f8fafc"/><rect x="318" y="320" width="38" height="42" rx="14" fill="#f8fafc"/>
    <rect x="66" y="368" width="38" height="42" rx="14" fill="#f8fafc"/><rect x="108" y="368" width="38" height="42" rx="14" fill="#f8fafc"/><rect x="150" y="368" width="38" height="42" rx="14" fill="#f8fafc"/><rect x="192" y="368" width="38" height="42" rx="14" fill="#f8fafc"/><rect x="234" y="368" width="38" height="42" rx="14" fill="#f8fafc"/><rect x="276" y="368" width="38" height="42" rx="14" fill="#f8fafc"/><rect x="318" y="368" width="38" height="42" rx="14" fill="#f8fafc"/>
    <rect x="66" y="416" width="38" height="42" rx="14" fill="#f8fafc"/><rect x="108" y="416" width="38" height="42" rx="14" fill="#f8fafc"/><rect x="150" y="416" width="38" height="42" rx="14" fill="#f8fafc"/><rect x="192" y="416" width="38" height="42" rx="14" fill="#f8fafc"/><rect x="234" y="416" width="38" height="42" rx="14" fill="#f8fafc"/><rect x="276" y="416" width="38" height="42" rx="14" fill="#f8fafc"/><rect x="318" y="416" width="38" height="42" rx="14" fill="#f8fafc"/>
  </g>
  <rect x="192" y="320" width="38" height="42" rx="14" fill="#ecfeff" stroke="#0f766e" stroke-width="2"/>
  <circle cx="211" cy="334" r="11" fill="#0f766e"/>
  <text x="206" y="338" fill="#ffffff" font-family="Arial, sans-serif" font-size="11" font-weight="700">10</text>
  <rect x="199" y="347" width="24" height="11" rx="6" fill="#e2e8f0"/>
  <text x="208" y="355" fill="#475569" font-family="Arial, sans-serif" font-size="9" font-weight="700">2</text>
  <circle cx="119" cy="333" r="2.5" fill="#64748b"/>
  <circle cx="161" cy="381" r="2.5" fill="#64748b"/>
  <circle cx="246" cy="429" r="2.5" fill="#64748b"/>
  <rect x="56" y="520" width="308" height="210" rx="28" fill="#ffffff" stroke="#d1fae5" stroke-width="2"/>
  <text x="76" y="560" fill="#0f172a" font-family="Arial, sans-serif" font-size="18" font-weight="700">Tue, Mar 10</text>
  <rect x="76" y="577" width="74" height="24" rx="12" fill="#e0f2fe"/>
  <text x="92" y="593" fill="#0369a1" font-family="Arial, sans-serif" font-size="11" font-weight="700">2 events</text>
  <rect x="158" y="577" width="62" height="24" rx="12" fill="#e2e8f0"/>
  <text x="173" y="593" fill="#334155" font-family="Arial, sans-serif" font-size="11" font-weight="700">1 task</text>
  <rect x="284" y="575" width="56" height="28" rx="14" fill="#0f172a"/>
  <text x="303" y="593" fill="#ffffff" font-family="Arial, sans-serif" font-size="11" font-weight="700">Add</text>
  <rect x="76" y="618" width="268" height="42" rx="16" fill="#f8fafc"/>
  <circle cx="92" cy="639" r="4" fill="#0f766e"/>
  <text x="104" y="635" fill="#334155" font-family="Arial, sans-serif" font-size="11" font-weight="700">Class meeting</text>
  <text x="104" y="651" fill="#64748b" font-family="Arial, sans-serif" font-size="10">09:00 - 09:40</text>
  <rect x="76" y="668" width="268" height="42" rx="16" fill="#f8fafc"/>
  <circle cx="92" cy="689" r="4" fill="#64748b"/>
  <text x="104" y="685" fill="#334155" font-family="Arial, sans-serif" font-size="11" font-weight="700">Homework check</text>
  <text x="104" y="701" fill="#64748b" font-family="Arial, sans-serif" font-size="10">Due today</text>
  <text x="76" y="762" fill="#0f172a" font-family="Arial, sans-serif" font-size="16" font-weight="700">Recommended</text>
  <text x="76" y="784" fill="#475569" font-family="Arial, sans-serif" font-size="13">Best balance of clarity, action, and calm.</text>
</svg>
