<svg xmlns="http://www.w3.org/2000/svg" width="420" height="860" viewBox="0 0 420 860" role="img" aria-labelledby="title desc">
  <title id="title">Option A Compact Stack</title>
  <desc id="desc">Mobile calendar mockup with a compact month grid and stacked date count inside the selected day cell.</desc>
  <rect width="420" height="860" rx="36" fill="#efe7d8"/>
  <rect x="24" y="20" width="372" height="820" rx="34" fill="#0f172a"/>
  <rect x="40" y="36" width="340" height="788" rx="28" fill="#fffaf2"/>
  <text x="64" y="84" fill="#0f172a" font-family="Georgia, serif" font-size="18" font-weight="700">Option A / Compact Stack</text>
  <rect x="56" y="106" width="308" height="54" rx="20" fill="#fff0cc"/>
  <text x="78" y="140" fill="#6b4d14" font-family="Arial, sans-serif" font-size="18" font-weight="700">March 2026</text>
  <rect x="56" y="180" width="308" height="342" rx="24" fill="#ffffff" stroke="#d6d3d1"/>
  <g fill="#64748b" font-family="Arial, sans-serif" font-size="11" font-weight="700">
    <text x="74" y="210">SUN</text><text x="117" y="210">MON</text><text x="160" y="210">TUE</text><text x="202" y="210">WED</text><text x="246" y="210">THU</text><text x="288" y="210">FRI</text><text x="332" y="210">SAT</text>
  </g>
  <g>
    <rect x="66" y="224" width="38" height="48" rx="14" fill="#f8fafc"/><rect x="108" y="224" width="38" height="48" rx="14" fill="#f8fafc"/><rect x="150" y="224" width="38" height="48" rx="14" fill="#f8fafc"/><rect x="192" y="224" width="38" height="48" rx="14" fill="#f8fafc"/><rect x="234" y="224" width="38" height="48" rx="14" fill="#f8fafc"/><rect x="276" y="224" width="38" height="48" rx="14" fill="#f8fafc"/><rect x="318" y="224" width="38" height="48" rx="14" fill="#f8fafc"/>
    <rect x="66" y="278" width="38" height="48" rx="14" fill="#f8fafc"/><rect x="108" y="278" width="38" height="48" rx="14" fill="#f8fafc"/><rect x="150" y="278" width="38" height="48" rx="14" fill="#f8fafc"/><rect x="192" y="278" width="38" height="48" rx="14" fill="#f8fafc"/><rect x="234" y="278" width="38" height="48" rx="14" fill="#f8fafc"/><rect x="276" y="278" width="38" height="48" rx="14" fill="#f8fafc"/><rect x="318" y="278" width="38" height="48" rx="14" fill="#f8fafc"/>
    <rect x="66" y="332" width="38" height="48" rx="14" fill="#f8fafc"/><rect x="108" y="332" width="38" height="48" rx="14" fill="#f8fafc"/><rect x="150" y="332" width="38" height="48" rx="14" fill="#f8fafc"/><rect x="192" y="332" width="38" height="48" rx="14" fill="#f8fafc"/><rect x="234" y="332" width="38" height="48" rx="14" fill="#f8fafc"/><rect x="276" y="332" width="38" height="48" rx="14" fill="#f8fafc"/><rect x="318" y="332" width="38" height="48" rx="14" fill="#f8fafc"/>
    <rect x="66" y="386" width="38" height="48" rx="14" fill="#f8fafc"/><rect x="108" y="386" width="38" height="48" rx="14" fill="#f8fafc"/><rect x="150" y="386" width="38" height="48" rx="14" fill="#f8fafc"/><rect x="192" y="386" width="38" height="48" rx="14" fill="#f8fafc"/><rect x="234" y="386" width="38" height="48" rx="14" fill="#f8fafc"/><rect x="276" y="386" width="38" height="48" rx="14" fill="#f8fafc"/><rect x="318" y="386" width="38" height="48" rx="14" fill="#f8fafc"/>
    <rect x="66" y="440" width="38" height="48" rx="14" fill="#f8fafc"/><rect x="108" y="440" width="38" height="48" rx="14" fill="#f8fafc"/><rect x="150" y="440" width="38" height="48" rx="14" fill="#f8fafc"/><rect x="192" y="440" width="38" height="48" rx="14" fill="#f8fafc"/><rect x="234" y="440" width="38" height="48" rx="14" fill="#f8fafc"/><rect x="276" y="440" width="38" height="48" rx="14" fill="#f8fafc"/><rect x="318" y="440" width="38" height="48" rx="14" fill="#f8fafc"/>
  </g>
  <rect x="192" y="332" width="38" height="48" rx="14" fill="#eef2ff" stroke="#6366f1" stroke-width="2"/>
  <circle cx="211" cy="347" r="11" fill="#4f46e5"/>
  <text x="206" y="351" fill="#ffffff" font-family="Arial, sans-serif" font-size="11" font-weight="700">10</text>
  <rect x="199" y="362" width="24" height="12" rx="6" fill="#e2e8f0"/>
  <text x="208" y="371" fill="#475569" font-family="Arial, sans-serif" font-size="9" font-weight="700">2</text>
  <circle cx="204" cy="379" r="2.5" fill="#64748b"/>
  <circle cx="211" cy="379" r="2.5" fill="#cbd5e1"/>
  <circle cx="218" cy="379" r="2.5" fill="#e2e8f0"/>
  <rect x="56" y="550" width="308" height="84" rx="24" fill="#ffffff" stroke="#e2e8f0"/>
  <text x="76" y="584" fill="#0f172a" font-family="Arial, sans-serif" font-size="17" font-weight="700">Smallest change</text>
  <text x="76" y="607" fill="#475569" font-family="Arial, sans-serif" font-size="13">Keeps modal flow. Fixes overflow.</text>
  <text x="76" y="627" fill="#475569" font-family="Arial, sans-serif" font-size="13">Less page-level context after tap.</text>
</svg>
